<svg width="24" height="25" viewBox="0 0 24 25" fill="none" xmlns="http://www.w3.org/2000/svg">
<path d="M0 19.5V24.5H5L19.7467 9.75333L14.7467 4.75333L0 19.5ZM23.6133 5.88666C23.7369 5.76331 23.835 5.61679 23.9019 5.45549C23.9688 5.29419 24.0033 5.12128 24.0033 4.94666C24.0033 4.77204 23.9688 4.59913 23.9019 4.43783C23.835 4.27653 23.7369 4.13001 23.6133 4.00666L20.4933 0.88666C20.37 0.763055 20.2235 0.664992 20.0622 0.598083C19.9009 0.531175 19.728 0.496735 19.5533 0.496735C19.3787 0.496735 19.2058 0.531175 19.0445 0.598083C18.8832 0.664992 18.7367 0.763055 18.6133 0.88666L16.1733 3.32666L21.1733 8.32666L23.6133 5.88666Z" fill="#000"/>
</svg>
